<?xml version="1.0" encoding="utf-8"?>
<!-- Generator: Adobe Illustrator 22.0.1, SVG Export Plug-In . SVG Version: 6.00 Build 0)  -->
<svg version="1.1" id="Layer_1" xmlns="http://www.w3.org/2000/svg" xmlns:xlink="http://www.w3.org/1999/xlink" x="0px" y="0px"
	 viewBox="0 0 40 40" style="enable-background:new 0 0 40 40;" xml:space="preserve">
<style type="text/css">
	.st0{fill:#DD0000;}
	.st1{fill:#FFFFFF;}
</style>
<g id="Logos">
	<g id="Samsung">
		<ellipse transform="matrix(0.9844 -0.1759 0.1759 0.9844 -3.2171 3.8747)" class="st0" cx="20.3" cy="20.1" rx="19" ry="5.4"/>
		<path id="S" class="st1" d="M8.7,20.8c0,0.1,0,0.2,0,0.3c-0.1,0.2-0.3,0.3-0.5,0.2C8,21.3,7.9,21.2,7.9,21v-0.4h-1v0.3
			c0,0.9,0.7,1.1,1.4,1.1s1.2-0.2,1.4-0.9c0-0.2,0-0.4,0-0.6c-0.2-0.8-1.6-1-1.7-1.5c0-0.1,0-0.1,0-0.2c0-0.2,0.2-0.3,0.3-0.3
			c0.2,0,0.3,0.1,0.4,0.3c0,0,0,0,0,0.1v0.2h1v-0.3c0-0.8-0.7-1-1.2-1S7.1,18.1,7,18.7c0,0.2,0,0.4,0,0.5C7.2,20,8.5,20.3,8.7,20.8"
			/>
		<path class="st1" d="M11,18l-0.7,3.9h1l0.5-3.5l0,0l0.5,3.5h1L12.8,18H11z M16.9,18l-0.5,3l0,0l-0.5-3h-1.6l-0.1,3.9h1v-3.5l0,0
			l0.6,3.5h1l0.6-3.5l0,0v3.5h1L18.4,18L16.9,18z"/>
		<path id="S-2" class="st1" d="M21.3,20.8c0,0.1,0,0.2,0,0.3c0,0.2-0.2,0.3-0.4,0.3c-0.2,0-0.4-0.1-0.4-0.3c0,0,0,0,0-0.1v-0.4h-1
			v0.3c0,0.9,0.7,1.1,1.4,1.1c0.7,0,1.2-0.2,1.4-0.9c0-0.2,0-0.4,0-0.6c-0.2-0.8-1.6-1-1.7-1.5c0-0.1,0-0.1,0-0.2
			c0-0.2,0.2-0.3,0.3-0.3c0.2,0,0.3,0.1,0.4,0.3c0,0,0,0,0,0v0.2h1v-0.3c0-0.8-0.8-1-1.2-1s-1.2,0.2-1.4,0.8c0,0.2,0,0.4,0,0.5
			C19.7,20,21.1,20.3,21.3,20.8"/>
		<path class="st1" d="M24.5,21.3c0.2,0,0.3-0.1,0.4-0.3c0,0,0-0.1,0-0.1V18h1v3c-0.1,0.7-0.6,0.9-1.4,0.9c-0.7,0-1.2-0.2-1.3-0.9
			v-3h1v2.9c0,0,0,0.1,0,0.1C24.2,21.2,24.3,21.3,24.5,21.3 M29.2,18l0.1,3l0,0l-0.9-3H27v3.8h0.9v-3.1l0,0l1,3.1h1.4V18H29.2z
			 M32.6,21.3c0.2,0,0.3-0.1,0.4-0.3c0,0,0-0.1,0-0.1v-0.6h-0.4v-0.6H34v1c0,0.1,0,0.2,0,0.2c-0.1,0.7-0.7,1-1.4,1
			c-0.7,0-1.2-0.2-1.4-1c0-0.1,0-0.2,0-0.2v-1.6c0-0.1,0-0.2,0-0.3c0.1-0.7,0.7-0.9,1.4-0.9c0.7,0,1.2,0.2,1.4,0.9
			c0,0.1,0,0.3,0,0.3v0.1h-1v-0.2c0,0,0-0.1,0-0.1c0-0.2-0.2-0.3-0.4-0.3c-0.2,0-0.3,0.1-0.4,0.3c0,0.1,0,0.1,0,0.2v1.8
			c0,0,0,0.1,0,0.1C32.3,21.2,32.5,21.4,32.6,21.3"/>
	</g>
</g>
</svg>
