<?xml version="1.0" encoding="utf-8"?>
<!-- Generator: Adobe Illustrator 22.0.1, SVG Export Plug-In . SVG Version: 6.00 Build 0)  -->
<svg version="1.1" id="Layer_1" xmlns="http://www.w3.org/2000/svg" xmlns:xlink="http://www.w3.org/1999/xlink" x="0px" y="0px"
	 viewBox="0 0 64 64" style="enable-background:new 0 0 64 64;" xml:space="preserve">
<style type="text/css">
	.st0{fill:#DD0000;}
</style>
<title></title>
<path class="st0" d="M37.3,17H26.8c-1.5,0-2.8,1.3-2.8,2.8c0,0,0,0,0,0V21c-0.6,0-1,0.4-1,1v2c0,0.6,0.4,1,1,1v1c-0.6,0-1,0.4-1,1v2
	c0,0.6,0.4,1,1,1v14.2c0,1.5,1.2,2.8,2.7,2.8c0,0,0,0,0,0h10.5c1.5,0,2.8-1.3,2.8-2.8c0,0,0,0,0,0V19.8C40,18.3,38.8,17,37.3,17
	C37.3,17,37.3,17,37.3,17z M26,19.8c0-0.4,0.3-0.8,0.7-0.8c0,0,0,0,0,0h10.5c0.4,0,0.8,0.4,0.8,0.8c0,0,0,0,0,0v1.7h-2
	c-0.6-0.1-1.3,0.1-1.8,0.5c-0.3,0.2-0.7,0.5-2.2,0.5s-1.9-0.3-2.2-0.5c-0.5-0.4-1.2-0.6-1.8-0.5h-2V19.8z M38,44.2
	c0,0.4-0.3,0.8-0.7,0.8c0,0,0,0,0,0H26.8c-0.4,0-0.8-0.4-0.8-0.8c0,0,0,0,0,0v-2.7h12V44.2z M26,40.5v-18h2c0.4-0.1,0.9,0.1,1.2,0.3
	c0.8,0.5,1.8,0.8,2.8,0.7c1,0.1,2-0.1,2.8-0.7c0.4-0.3,0.8-0.4,1.2-0.3h2v18H26z"/>
<path class="st0" d="M61.1,42.7c0.3,0,0.5-0.1,0.7-0.2c0.9-0.4,1.5-1.3,1.7-2.3c0.7-5.4,0.7-11,0-16.4c-0.1-1-0.8-1.8-1.7-2.3
	c-0.2-0.1-0.5-0.2-0.7-0.2c-3.2-8.5-9.9-15.2-18.3-18.3c0-0.3-0.1-0.5-0.2-0.7c-0.4-0.9-1.3-1.5-2.3-1.7c-5.4-0.7-11-0.7-16.4,0
	c-1,0.1-1.8,0.8-2.3,1.7c-0.1,0.2-0.2,0.5-0.2,0.7C12.8,6.1,6.1,12.8,2.9,21.3c-0.3,0-0.5,0.1-0.7,0.2c-0.9,0.4-1.5,1.3-1.7,2.3
	c-0.7,5.4-0.7,11,0,16.4c0.1,1,0.8,1.8,1.7,2.3c0.2,0.1,0.5,0.2,0.7,0.2c3.2,8.5,9.9,15.2,18.3,18.3c0,0.3,0.1,0.5,0.2,0.7
	c0.4,0.9,1.3,1.5,2.3,1.7c5.4,0.7,11,0.7,16.4,0c1-0.1,1.8-0.8,2.3-1.7c0.1-0.2,0.2-0.5,0.2-0.7C51.2,57.9,57.9,51.2,61.1,42.7z
	 M61.5,39.9c0,0.3-0.3,0.6-0.5,0.8c-0.1,0.1-0.3,0.1-0.5,0.1l0,0c-0.2,0-0.3,0-0.4-0.1l0,0L52,36c0,0,0,0-0.1,0
	c-0.1-0.1-0.2-0.1-0.2-0.2l0,0c-0.1-0.1-0.1-0.2-0.1-0.2c0,0,0-0.1,0-0.1c0-0.1,0-0.1,0-0.2c0-0.1,0-0.2,0-0.3
	c0.6-1.9,0.6-3.9,0-5.8c0-0.1,0-0.2,0-0.3c0-0.1,0-0.1,0-0.2c0,0,0-0.1,0-0.1c0-0.1,0.1-0.2,0.1-0.2l0,0c0.1-0.1,0.1-0.1,0.2-0.2
	L52,28l8-4.6l0,0c0.1-0.1,0.3-0.1,0.5-0.1h0.1c0.2,0,0.3,0,0.4,0.1c0.3,0.1,0.5,0.4,0.5,0.8C62.2,29.3,62.2,34.7,61.5,39.9z
	 M50.3,37.1c-1.8,6.4-6.8,11.4-13.1,13.1l0,0c-0.2-0.2-0.4-0.3-0.6-0.4h-0.1c-0.2-0.1-0.4-0.2-0.6-0.2l0,0c-0.2,0-0.4-0.1-0.7-0.1
	H35c-0.2,0-0.5,0.1-0.7,0.1c-1.5,0.5-3.1,0.5-4.6,0c-0.2-0.1-0.4-0.1-0.7-0.1h-0.2c-0.2,0-0.4,0-0.7,0.1l0,0
	c-0.2,0.1-0.4,0.1-0.6,0.2h-0.1c-0.2,0.1-0.4,0.3-0.6,0.4l0,0c-6.4-1.7-11.4-6.7-13.2-13.1l0,0c0.2-0.2,0.3-0.4,0.4-0.6v-0.1
	c0.1-0.2,0.2-0.4,0.2-0.6l0,0c0-0.2,0.1-0.5,0.1-0.7c0,0,0-0.1,0-0.2c0-0.2-0.1-0.5-0.1-0.7c-0.5-1.5-0.5-3.1,0-4.6
	c0.1-0.2,0.1-0.4,0.1-0.7c0,0,0-0.1,0-0.2c0-0.2,0-0.4-0.1-0.7c0,0,0-0.1,0-0.1c0-0.2-0.1-0.4-0.2-0.6v-0.1
	c-0.1-0.2-0.3-0.4-0.4-0.6l0,0c1.8-6.4,6.7-11.4,13.1-13.2l0,0c0.2,0.2,0.4,0.3,0.6,0.4h0.1c0.2,0.1,0.4,0.2,0.6,0.2l0,0
	c0.2,0,0.5,0.1,0.7,0.1H29c0.2,0,0.5-0.1,0.7-0.1c1.5-0.5,3.1-0.5,4.6,0c0.1,0,0.3,0.1,0.5,0.1h0.2h0.3c0.2,0,0.4,0,0.6-0.1l0,0l0,0
	h0.1c0.2,0,0.3-0.1,0.5-0.2h0.1l0,0h0.1c0.2-0.1,0.3-0.2,0.5-0.4l0,0c6.4,1.7,11.4,6.7,13.3,13l0,0c-0.2,0.2-0.3,0.4-0.4,0.6v0.1
	c-0.1,0.2-0.2,0.4-0.2,0.6c0,0,0,0.1,0,0.1c0,0.2-0.1,0.4-0.1,0.7c0,0,0,0.1,0,0.2c0,0.2,0.1,0.5,0.1,0.7c0.1,0.4,0.2,0.8,0.3,1.1
	c0.2,1.1,0.1,2.3-0.3,3.4l0,0c-0.1,0.2-0.1,0.4-0.1,0.7c0,0.1,0,0.1,0,0.2c0,0.2,0,0.5,0.1,0.7l0,0c0.1,0.2,0.1,0.4,0.2,0.6v0.1
	C50,36.7,50.1,36.9,50.3,37.1L50.3,37.1z M59,21.6L59,21.6L52,25.7c-2-6.5-7.1-11.6-13.6-13.7l4.1-7l0,0V4.9
	C50,7.9,56.1,13.9,59,21.6z M24,2.6c5.3-0.7,10.6-0.7,15.9,0c0.3,0,0.6,0.3,0.8,0.5c0.1,0.1,0.1,0.3,0.1,0.5l0,0
	c0,0.2-0.1,0.3-0.1,0.5L36,12l-0.1,0.1c-0.1,0.1-0.1,0.2-0.2,0.2l0,0c-0.1,0.1-0.2,0.1-0.3,0.1l0,0c-0.1,0-0.2,0-0.3,0.1
	c-0.1,0-0.2,0-0.3,0c-1.9-0.6-3.9-0.6-5.8,0c-0.1,0-0.2,0-0.3,0c-0.1,0-0.2,0-0.2,0h-0.1c-0.1,0-0.2-0.1-0.2-0.1l0,0
	c-0.1-0.1-0.1-0.1-0.2-0.2L28,12l-4.7-8l0,0c-0.1-0.1-0.1-0.3-0.1-0.4l0,0c0-0.2,0-0.3,0.1-0.5C23.5,2.8,23.7,2.6,24,2.6L24,2.6z
	 M21.6,4.9C21.6,5,21.6,5,21.6,4.9l4.1,7.1c-6.5,2-11.6,7.1-13.7,13.6l-7-4.1v-0.1C8,14,14,7.9,21.6,4.9z M2.6,24.1
	c0-0.3,0.3-0.6,0.5-0.8c0.1-0.1,0.3-0.1,0.4-0.1h0.1c0.2,0,0.3,0.1,0.5,0.1L12,28l0.1,0c0.1,0.1,0.2,0.1,0.2,0.2l0,0
	c0.1,0.1,0.1,0.2,0.1,0.2c0,0,0,0.1,0,0.1c0,0.1,0,0.1,0,0.2c0,0.1,0,0.2,0,0.3c-0.1,0.2-0.1,0.5-0.2,0.7c-0.4,1.7-0.3,3.4,0.2,5.1
	c0,0,0,0.1,0,0.1c0,0.1,0,0.1,0,0.2c0,0.1,0,0.1,0,0.2c0,0,0,0,0,0.1c0,0.1-0.1,0.2-0.1,0.2l0,0c-0.1,0.1-0.1,0.2-0.2,0.2
	c0,0,0,0-0.1,0l-8,4.7l0,0c-0.1,0.1-0.3,0.1-0.4,0.1l0,0c-0.2,0-0.3,0-0.5-0.1c-0.3-0.1-0.5-0.4-0.5-0.8C1.8,34.7,1.8,29.3,2.6,24.1
	L2.6,24.1z M4.9,42.4L4.9,42.4l7.1-4.1c2,6.5,7.1,11.6,13.6,13.6l-4.1,7l0,0l0,0.1C13.9,56.1,7.9,50.1,4.9,42.4z M39.9,61.4
	c-5.3,0.7-10.6,0.7-15.9,0c-0.3,0-0.6-0.3-0.8-0.5c-0.1-0.1-0.1-0.3-0.1-0.5l0,0c0-0.2,0.1-0.3,0.1-0.5l4.7-8l0.1-0.1
	c0-0.1,0.1-0.1,0.2-0.2h0.1c0.1,0,0.1-0.1,0.2-0.1c0,0,0.1,0,0.1,0h0.2c0.1,0,0.2,0,0.3,0c1.9,0.6,3.9,0.6,5.8,0c0.1,0,0.2,0,0.3,0
	c0.1,0,0.1,0,0.2,0h0.1c0.1,0,0.2,0.1,0.2,0.1l0,0c0.1,0.1,0.1,0.1,0.2,0.2l0.1,0l4.7,8l0,0c0.1,0.1,0.1,0.3,0.1,0.4l0,0
	c0,0.2,0,0.3-0.1,0.5C40.5,61.2,40.3,61.4,39.9,61.4L39.9,61.4z M42.4,59C42.4,59,42.4,59,42.4,59l-4.1-7.1
	c6.5-2,11.6-7.1,13.6-13.6l7,4.1l0,0h0.1C56.1,50,50.1,56.1,42.4,59L42.4,59z"/>
<path class="st0" d="M16,10.8c0.1,0,0.2,0,0.3-0.1c0.9-0.7,1.9-1.3,2.9-1.9c0.2-0.1,0.3-0.4,0.2-0.7c-0.1-0.2-0.4-0.3-0.7-0.2
	c-1.1,0.6-2.1,1.3-3.1,2c-0.2,0.2-0.3,0.5-0.1,0.7C15.7,10.7,15.8,10.8,16,10.8z"/>
<path class="st0" d="M10,16.8c0.2,0,0.3-0.1,0.4-0.2c1.1-1.6,2.4-3,3.8-4.3c0.2-0.2,0.2-0.5,0-0.7c0,0,0,0,0,0
	c-0.2-0.2-0.5-0.2-0.7,0c0,0,0,0,0,0c-1.5,1.3-2.8,2.8-3.9,4.4c-0.2,0.2-0.1,0.5,0.1,0.7C9.8,16.8,9.9,16.9,10,16.8z"/>
</svg>
