<?xml version="1.0" encoding="utf-8"?>
<!-- Generator: Adobe Illustrator 22.0.1, SVG Export Plug-In . SVG Version: 6.00 Build 0)  -->
<svg version="1.1" id="Layer_1" xmlns="http://www.w3.org/2000/svg" xmlns:xlink="http://www.w3.org/1999/xlink" x="0px" y="0px"
	 viewBox="0 0 48 48" style="enable-background:new 0 0 48 48;" xml:space="preserve">
<style type="text/css">
	.st0{fill:#DD0000;}
</style>
<path class="st0" d="M41,47L41,47H7l0,0c-2.8,0-5-2.2-5-5V2c0-0.6,0.4-1,1-1l0,0h34l0,0c0.4,0,0.8,0.3,0.9,0.6C38,1.7,38,1.9,38,2
	l0,0v14h7c0.6,0,1,0.4,1,1v25C46,44.8,43.8,47,41,47z M36,42V3H4v39l0,0l0,0c0,1.7,1.3,3,3,3h30C36.4,44.2,36,43.1,36,42z M44,18h-6
	v24c0,1.7,1.3,3,3,3s3-1.3,3-3V18z M7,40c0-0.6,0.4-1,1-1h9c0.6,0,1,0.4,1,1c0,0.6-0.4,1-1,1H8C7.4,41,7,40.6,7,40z M11.7,23.7
	c-0.4,0.4-1,0.4-1.4,0c-0.4-0.4-0.4-1,0-1.4l5.9-5.9c0,0,0.1-0.1,0.1-0.1c0.2-0.2,0.5-0.3,0.7-0.3c0.3,0,0.5,0.1,0.7,0.3
	c0,0,0.1,0.1,0.1,0.1l4.2,4.2l2.2-2.2c0,0,0.1-0.1,0.1-0.1c0.2-0.2,0.5-0.3,0.7-0.3c0.3,0,0.5,0.1,0.7,0.3c0,0,0.1,0.1,0.1,0.1
	l3.9,3.9c0.4,0.4,0.4,1,0,1.4c-0.4,0.4-1,0.4-1.4,0L25,20.4L23.4,22l0.3,0.3c0.4,0.4,0.4,1,0,1.4s-1,0.4-1.4,0L17,18.4L11.7,23.7z
	 M23,29h9c0.6,0,1,0.4,1,1c0,0.6-0.4,1-1,1h-9c-0.6,0-1-0.4-1-1C22,29.4,22.4,29,23,29z M23,34h9c0.6,0,1,0.4,1,1c0,0.6-0.4,1-1,1
	h-9c-0.6,0-1-0.4-1-1C22,34.4,22.4,34,23,34z M23,39h9c0.6,0,1,0.4,1,1c0,0.6-0.4,1-1,1h-9c-0.6,0-1-0.4-1-1C22,39.4,22.4,39,23,39z
	 M24,15.5c0,0.8-0.7,1.5-1.5,1.5S21,16.3,21,15.5s0.7-1.5,1.5-1.5S24,14.7,24,15.5z M27,10H13c-0.6,0-1-0.4-1-1s0.4-1,1-1h14
	c0.6,0,1,0.4,1,1S27.6,10,27,10z M8,34h9c0.6,0,1,0.4,1,1c0,0.6-0.4,1-1,1H8c-0.6,0-1-0.4-1-1C7,34.4,7.4,34,8,34z M18,30
	c0,0.6-0.4,1-1,1H8c-0.6,0-1-0.4-1-1c0-0.6,0.4-1,1-1h9C17.6,29,18,29.4,18,30z"/>
</svg>
